<svg width="138" height="50" viewBox="0 0 138 50" fill="none" xmlns="http://www.w3.org/2000/svg">
<path fill-rule="evenodd" clip-rule="evenodd" d="M55.031 22.2813L66.8026 22.317L66.8346 11.6442H70.9513L70.873 38.9259H66.7563L66.7921 26.187L55.0205 26.1519L54.9848 38.8902H50.8682L50.9465 11.6084H55.0631L55.031 22.2813Z" fill="#B9A571"/>
<path fill-rule="evenodd" clip-rule="evenodd" d="M94.5304 32.3802L82.8513 32.3444L79.7945 38.9617H75.3604L88.9439 10.0029L101.871 39.0258H97.3664L94.5304 32.3802ZM92.854 28.5064L88.8231 19.2171L84.5424 28.4917L92.854 28.5064Z" fill="#B9A571"/>
<path fill-rule="evenodd" clip-rule="evenodd" d="M111.296 11.7725L111.218 39.0542H107.102L107.18 11.7725H111.296Z" fill="#B9A571"/>
<path fill-rule="evenodd" clip-rule="evenodd" d="M129.581 27.4823L137.993 39.133H132.956L125.208 27.928H124.459L124.427 39.0972H120.311L120.389 11.8154H125.211C128.817 11.8154 131.419 12.4998 133.017 13.8697C134.781 15.3821 135.659 17.3754 135.649 19.8483C135.691 21.6578 135.098 23.4248 133.972 24.8422C132.87 26.2171 131.313 27.153 129.581 27.4823ZM124.466 24.3398H125.772C129.672 24.3398 131.625 22.8558 131.633 19.8878C131.633 17.0961 129.739 15.6941 125.954 15.6817H124.494L124.466 24.3398Z" fill="#B9A571"/>
<path fill-rule="evenodd" clip-rule="evenodd" d="M0.0747272 0.756836L0.0605469 7.09916H2.87874V6.20764H1.01618L1.03098 0.756836H0.0747272Z" fill="#B9A571"/>
<path fill-rule="evenodd" clip-rule="evenodd" d="M9.93848 3.92426C9.93231 3.05494 10.2905 2.22323 10.9268 1.63074C11.5458 1.00249 12.396 0.656609 13.2776 0.674488C14.1513 0.66524 14.9904 1.0179 15.5958 1.64862C16.2272 2.25714 16.5774 3.10056 16.5626 3.9779C16.5749 4.85338 16.2173 5.69372 15.5779 6.29299C14.3165 7.52114 12.3189 7.56183 11.0088 6.38547C10.2985 5.76894 9.90519 4.86448 9.93848 3.92426ZM10.9015 3.92426C10.883 4.57532 11.142 5.20296 11.6148 5.65056C12.5279 6.56057 14.0052 6.56057 14.9183 5.65056C15.3708 5.20419 15.6205 4.59197 15.61 3.95632C15.618 3.3293 15.3708 2.72509 14.9256 2.28365C14.4959 1.82125 13.8905 1.5623 13.2598 1.5697C12.6309 1.55552 12.0242 1.80337 11.5865 2.25467C11.1358 2.69611 10.8879 3.30464 10.9015 3.93474V3.92426Z" fill="#B9A571"/>
<path fill-rule="evenodd" clip-rule="evenodd" d="M24.1613 3.96406C24.1551 3.09475 24.5133 2.26304 25.1496 1.67054C25.7692 1.04353 26.6188 0.699498 27.5004 0.717994C28.3741 0.708746 29.2132 1.06141 29.8186 1.69151C30.4493 2.30065 30.7995 3.14407 30.7854 4.0214C30.7977 4.89688 30.4401 5.73723 29.8007 6.3365C28.5393 7.56464 26.5417 7.60533 25.2316 6.42898C24.5201 5.81121 24.1268 4.90552 24.1613 3.96406ZM25.1243 3.96406C25.1058 4.61513 25.3648 5.24276 25.8376 5.69037C26.7507 6.60038 28.228 6.60038 29.141 5.69037C29.5917 5.24338 29.8408 4.63116 29.8297 3.99612C29.8476 3.36232 29.6053 2.74887 29.1589 2.29818C28.7181 1.84071 28.1028 1.59286 27.4678 1.61691C26.8481 1.60273 26.2495 1.84379 25.813 2.284C25.3574 2.72791 25.1077 3.34198 25.1243 3.97824V3.96406Z" fill="#B9A571"/>
<path fill-rule="evenodd" clip-rule="evenodd" d="M38.718 0.856934L38.6934 7.19925H39.649V4.57774L39.8457 4.38168L42.1176 7.20665H43.3988L40.5448 3.73246L43.416 0.878512H42.1392L39.6669 3.39645L39.6743 0.856934H38.718Z" fill="#B9A571"/>
<path fill-rule="evenodd" clip-rule="evenodd" d="M60.3243 0.5L60.3027 7.2776L61.2732 7.26712V2.83359L65.8602 7.66663L65.8781 0.946373H64.9224V5.34783L60.3243 0.5Z" fill="#B9A571"/>
<path fill-rule="evenodd" clip-rule="evenodd" d="M73.4336 7.31688H74.4644L75.1784 5.77923H77.8893L78.549 7.31996H79.5946L76.5909 0.578125L73.4336 7.31688ZM76.5662 2.74032L77.5003 4.88032H75.5742L76.5662 2.74032Z" fill="#B9A571"/>
<path fill-rule="evenodd" clip-rule="evenodd" d="M86.084 1.00635V1.92684H87.5396V7.36285H88.5131V1.92684H89.9472V1.00635H86.084Z" fill="#B9A571"/>
<path fill-rule="evenodd" clip-rule="evenodd" d="M98.4901 1.04248V4.85576C98.4574 5.27131 98.5493 5.68747 98.7539 6.05061C99.241 6.67023 100.138 6.77813 100.758 6.29106C100.847 6.22078 100.928 6.14001 100.998 6.05061C101.207 5.68994 101.301 5.27501 101.269 4.85946V1.04618H102.225V5.12334C102.245 5.73433 102.019 6.32806 101.597 6.77135C100.665 7.72205 99.1374 7.73623 98.1867 6.80341C98.1762 6.79292 98.1651 6.78244 98.1547 6.77135C97.7348 6.32621 97.511 5.73125 97.5338 5.11964V1.04248H98.4901Z" fill="#B9A571"/>
<path fill-rule="evenodd" clip-rule="evenodd" d="M112.598 4.72007L114.553 7.4242H113.383L111.581 4.82734H111.41V7.4205H110.454L110.472 1.08496H111.592C112.429 1.08496 113.033 1.24464 113.404 1.56339C113.809 1.90742 114.034 2.41915 114.014 2.9506C114.024 3.36985 113.886 3.77861 113.625 4.10661C113.367 4.42721 113.003 4.64546 112.598 4.72007ZM111.41 4.00673H111.713C112.619 4.00673 113.073 3.66209 113.076 2.97218C113.076 2.32297 112.636 1.99682 111.756 1.99497H111.399L111.41 4.00673Z" fill="#B9A571"/>
<path fill-rule="evenodd" clip-rule="evenodd" d="M121.488 7.45612H122.519L123.232 5.91909H125.943L126.607 7.46352H127.652L124.649 0.72168L121.488 7.45612ZM124.631 2.87956L125.565 5.02018H123.639L124.631 2.87956Z" fill="#B9A571"/>
<path fill-rule="evenodd" clip-rule="evenodd" d="M135.182 7.49186H138V6.58925H136.138V1.15263L135.196 1.14893L135.182 7.49186Z" fill="#B9A571"/>
<path fill-rule="evenodd" clip-rule="evenodd" d="M41.0225 45.3041C40.356 44.1216 39.7709 42.8953 39.2709 41.6332C38.8572 41.5907 38.4219 41.5586 37.9688 41.5303C38.925 42.764 39.938 44.0272 41.0225 45.3004" fill="#B9A571"/>
<path fill-rule="evenodd" clip-rule="evenodd" d="M36.7134 30.2719C36.4797 27.1362 36.5284 23.985 36.8595 20.858C34.238 17.3301 31.7761 13.8128 30.6349 11.5834L23.6113 11.5581C23.8999 13.7628 24.8629 18.6927 27.9918 25.4203C30.6633 27.4241 33.598 29.0505 36.7134 30.254" fill="#B9A571"/>
<path fill-rule="evenodd" clip-rule="evenodd" d="M33.9951 11.605C34.7695 12.7499 35.9964 14.5551 37.4372 16.6489C37.7122 15.0366 38.0513 13.3633 38.4792 11.6192" fill="#B9A571"/>
<path fill-rule="evenodd" clip-rule="evenodd" d="M39.8738 31.3061C41.4909 31.7494 43.1389 32.0737 44.8036 32.2766V31.0885C43.6655 29.6618 41.7394 27.2573 39.6419 24.5322C39.5834 26.7937 39.6611 29.057 39.8738 31.3098" fill="#B9A571"/>
<path fill-rule="evenodd" clip-rule="evenodd" d="M44.7932 34.6918C43.2396 34.5216 41.7013 34.2331 40.1914 33.8286C40.4436 35.4828 40.8178 37.1166 41.3117 38.7153C42.4461 38.8583 43.6021 39.0328 44.7791 39.2757" fill="#B9A571"/>
<path fill-rule="evenodd" clip-rule="evenodd" d="M44.7647 45.5787V42.7784C44.0803 42.5349 43.3811 42.337 42.6709 42.1865C43.2474 43.3857 43.9453 44.522 44.7542 45.5787" fill="#B9A571"/>
<path fill-rule="evenodd" clip-rule="evenodd" d="M15.7383 43.4771C21.0541 40.6879 26.8779 39.0004 32.8607 38.5152C30.1918 34.6495 27.7774 30.6131 25.6337 26.4329C24.4031 25.3306 15.9664 17.622 12.8954 11.5578L0.10658 11.5078L0.0566406 28.8911C8.24364 33.2426 13.0415 39.0041 15.7524 43.4734" fill="#B9A571"/>
<path fill-rule="evenodd" clip-rule="evenodd" d="M17.2185 46.1812C17.6723 47.1035 18.0768 48.0487 18.4313 49.0136L40.7333 49.0777C39.4743 47.537 37.3448 44.8575 34.9261 41.4937C30.2207 41.6188 24.1102 42.7138 17.2148 46.1886" fill="#B9A571"/>
<path fill-rule="evenodd" clip-rule="evenodd" d="M38.1691 38.4475C37.6401 36.6072 37.2468 34.7304 36.9922 32.8327C34.5747 31.9554 32.2485 30.8444 30.0469 29.5151C31.7282 32.5867 33.595 35.5529 35.6364 38.3976C36.4687 38.3976 37.314 38.413 38.1728 38.4438" fill="#B9A571"/>
<path fill-rule="evenodd" clip-rule="evenodd" d="M44.8183 27.051L44.8645 11.6406H41.1154C40.529 14.4662 40.1184 17.3257 39.8848 20.2019C41.5365 22.5601 43.2702 24.993 44.8183 27.0763" fill="#B9A571"/>
<path fill-rule="evenodd" clip-rule="evenodd" d="M23.3724 21.4357C22.0098 18.0145 21.0856 14.6581 20.8754 11.5686L15.9561 11.5581C17.9296 15.1981 20.4284 18.5274 23.3724 21.4394" fill="#B9A571"/>
<path fill-rule="evenodd" clip-rule="evenodd" d="M15.9778 49.014C15.7244 48.4184 15.4605 47.8438 15.1893 47.2803C14.2441 47.8117 13.2879 48.3752 12.3359 48.9998" fill="#B9A571"/>
<mask id="mask0_206_3" style="mask-type:alpha" maskUnits="userSpaceOnUse" x="0" y="31" width="14" height="18">
<path d="M0 31.6948H13.748V48.9708H0V31.6948Z" fill="white"/>
</mask>
<g mask="url(#mask0_206_3)">
<path fill-rule="evenodd" clip-rule="evenodd" d="M7.56615 48.9708C9.47186 47.2988 11.5428 45.8265 13.7482 44.5761C10.5163 39.0538 5.76031 34.5815 0.0499395 31.6948L0 48.9492" fill="#B9A571"/>
</g>
<path fill-rule="evenodd" clip-rule="evenodd" d="M53.076 46.6275L55.0951 49.4062H53.8929L52.031 46.7379H51.8522V49.4062H50.8682V42.8857H52.0199C52.8812 42.8857 53.5026 43.0473 53.8855 43.371C54.3054 43.7236 54.5396 44.2495 54.5205 44.7976C54.5316 45.2286 54.3917 45.6503 54.1247 45.9888C53.8615 46.3192 53.4903 46.5455 53.076 46.6275ZM51.8522 45.8784H52.1666C53.0988 45.8784 53.5649 45.5214 53.5649 44.8081C53.5649 44.1398 53.1117 43.8056 52.2054 43.8056H51.8491L51.8522 45.8784Z" fill="#B9A571"/>
<path fill-rule="evenodd" clip-rule="evenodd" d="M58.7767 42.8931L58.7588 49.4142H62.3581V48.49H59.7434V46.3105H62.2829V45.387H59.7434V43.821H62.3581L62.3754 42.8931H58.7767Z" fill="#B9A571"/>
<path fill-rule="evenodd" clip-rule="evenodd" d="M70.0235 43.7345L69.2245 44.2092C69.1252 44.0076 68.9785 43.8337 68.7966 43.7024C68.6314 43.6056 68.4415 43.5587 68.2504 43.5668C68.0025 43.5575 67.7602 43.6401 67.5691 43.7986C67.394 43.9373 67.2935 44.1494 67.2984 44.3732C67.2984 44.6919 67.5358 44.9484 68.0118 45.1432L68.661 45.4108C69.1092 45.5687 69.5093 45.8393 69.8238 46.1957C70.0691 46.5218 70.1949 46.9226 70.1807 47.3301C70.198 47.8881 69.9804 48.4275 69.5815 48.8178C69.1832 49.2105 68.6419 49.4245 68.0827 49.4097C67.5679 49.4276 67.066 49.2463 66.6813 48.9035C66.2941 48.5219 66.053 48.0169 66 47.4762L66.9951 47.2555C67.0062 47.536 67.087 47.8091 67.2306 48.0508C67.6178 48.536 68.3243 48.615 68.8096 48.2278C68.8348 48.208 68.8589 48.1871 68.8823 48.1649C69.0852 47.9565 69.1943 47.6747 69.185 47.3837C69.1869 47.2629 69.169 47.1421 69.132 47.0268C69.0962 46.9201 69.0401 46.8208 68.9674 46.7345C68.8842 46.6377 68.7867 46.5539 68.6789 46.4848C68.5451 46.3991 68.4039 46.3251 68.2578 46.2635L67.6301 46.0033C66.738 45.6248 66.2922 45.0736 66.2922 44.3479C66.2855 43.875 66.4926 43.4243 66.8558 43.121C67.2423 42.7838 67.7417 42.6056 68.2541 42.6216C69.0093 42.6198 69.698 43.0526 70.0235 43.7345Z" fill="#B9A571"/>
<path fill-rule="evenodd" clip-rule="evenodd" d="M73.6768 42.8853V43.8094H75.1749V49.4064H76.1596V43.8094H77.654V42.8853H73.6768Z" fill="#B9A571"/>
<path fill-rule="evenodd" clip-rule="evenodd" d="M81.3032 46.0204C81.2964 45.1351 81.6614 44.2873 82.3094 43.6838C82.9414 43.0475 83.8057 42.6973 84.7028 42.7139C86.5524 42.7294 88.0451 44.2312 88.0488 46.0809C88.0605 46.973 87.6967 47.8287 87.0463 48.4391C85.7608 49.6925 83.7237 49.7345 82.3877 48.5353C81.6639 47.9046 81.2656 46.9798 81.3032 46.0204ZM82.2841 46.0204C82.2502 47.3417 83.294 48.441 84.6153 48.4749C85.2694 48.4915 85.9014 48.2406 86.365 47.7788C87.2984 46.8176 87.3064 45.2898 86.3829 44.3188C85.9433 43.8533 85.3286 43.5944 84.6886 43.6055C84.0456 43.5944 83.4272 43.8533 82.9833 44.3188C82.524 44.7701 82.2724 45.391 82.2878 46.0346L82.2841 46.0204Z" fill="#B9A571"/>
<path fill-rule="evenodd" clip-rule="evenodd" d="M93.91 46.6275L95.9291 49.4062H94.7269L92.8649 46.7379H92.6861V49.4062H91.7021V42.8857H92.8538C93.7151 42.8857 94.3366 43.0473 94.7195 43.371C95.1393 43.7236 95.3736 44.2495 95.3545 44.7976C95.3656 45.2286 95.2257 45.6503 94.9587 45.9888C94.6961 46.3192 94.3243 46.5455 93.91 46.6275ZM92.6861 45.8784H93.0006C93.9328 45.8784 94.3989 45.5214 94.3989 44.8081C94.3989 44.1398 93.9457 43.8056 93.0394 43.8056H92.6831L92.6861 45.8784Z" fill="#B9A571"/>
<path fill-rule="evenodd" clip-rule="evenodd" d="M99.585 49.4062H100.655L101.369 47.8223H104.162L104.84 49.4062H105.909L102.795 42.4751L99.585 49.4062ZM102.792 44.6798L103.759 46.8988H101.779L102.792 44.6798Z" fill="#B9A571"/>
<path fill-rule="evenodd" clip-rule="evenodd" d="M109.573 42.8853V43.8094H111.071V49.4064H112.056V43.8094H113.551V42.8853H109.573Z" fill="#B9A571"/>
<path fill-rule="evenodd" clip-rule="evenodd" d="M121.855 46.0214C121.848 45.1361 122.213 44.2883 122.861 43.6847C123.493 43.0485 124.358 42.6983 125.255 42.7149C127.104 42.7303 128.597 44.2322 128.601 46.0818C128.612 46.974 128.248 47.8297 127.598 48.4401C126.313 49.6935 124.276 49.7354 122.939 48.5363C122.216 47.9056 121.817 46.9807 121.855 46.0214ZM122.836 46.0214C122.802 47.3427 123.846 48.4419 125.167 48.4758C125.821 48.4925 126.453 48.2416 126.917 47.7798C127.85 46.8186 127.858 45.2908 126.935 44.3198C126.495 43.8543 125.88 43.5953 125.24 43.6064C124.597 43.5953 123.979 43.8543 123.535 44.3198C123.076 44.7711 122.824 45.3919 122.84 46.0356L122.836 46.0214Z" fill="#B9A571"/>
<path fill-rule="evenodd" clip-rule="evenodd" d="M132.253 49.4096H133.238V44.8442L137.993 49.806V42.8854H137.008V47.4194L132.253 42.4434V49.4096Z" fill="#B9A571"/>
<path fill-rule="evenodd" clip-rule="evenodd" d="M117.221 42.8853L117.203 49.4064H118.188L118.206 42.8853H117.221Z" fill="#B9A571"/>
</svg>
