<svg width="182" height="66" viewBox="0 0 182 66" fill="none" xmlns="http://www.w3.org/2000/svg">
<path fill-rule="evenodd" clip-rule="evenodd" d="M72.5771 28.7263L88.1018 28.7734L88.1441 14.6976H93.5733L93.47 50.6779H88.0409L88.088 33.8773L72.5632 33.831L72.5161 50.6308H67.0869L67.1902 14.6505H72.6193L72.5771 28.7263Z" fill="#FEFEFE"/>
<path fill-rule="evenodd" clip-rule="evenodd" d="M124.671 42.0448L109.268 41.9977L105.237 50.7248H99.3887L117.303 12.5328L134.353 50.8094H128.411L124.671 42.0448ZM122.46 36.936L117.144 24.6848L111.498 36.9165L122.46 36.936Z" fill="#FEFEFE"/>
<path fill-rule="evenodd" clip-rule="evenodd" d="M146.782 14.8666L146.679 50.8469H141.25L141.353 14.8666H146.782Z" fill="#FEFEFE"/>
<path fill-rule="evenodd" clip-rule="evenodd" d="M170.898 35.5854L181.991 50.9509H175.348L165.13 36.1733H164.142L164.099 50.9037H158.671L158.774 14.9234H165.134C169.889 14.9234 173.321 15.826 175.428 17.6327C177.755 19.6273 178.913 22.2561 178.9 25.5175C178.955 27.904 178.173 30.2343 176.689 32.1037C175.235 33.9169 173.181 35.1512 170.898 35.5854ZM164.151 31.441H165.873C171.017 31.441 173.593 29.4838 173.603 25.5695C173.603 21.8877 171.106 20.0387 166.113 20.0224H164.189L164.151 31.441Z" fill="#FEFEFE"/>
<path fill-rule="evenodd" clip-rule="evenodd" d="M0.0987798 0.338806L0.0800781 8.70331H3.79682V7.52755H1.34041L1.35992 0.338806H0.0987798Z" fill="#FEFEFE"/>
<path fill-rule="evenodd" clip-rule="evenodd" d="M13.1071 4.51665C13.0989 3.37016 13.5714 2.27327 14.4105 1.49187C15.2269 0.663306 16.3481 0.207149 17.5109 0.230729C18.6631 0.218533 19.7697 0.683634 20.5682 1.51545C21.4008 2.31799 21.8627 3.43033 21.8432 4.5874C21.8594 5.74202 21.3878 6.85029 20.5446 7.64064C18.881 9.26036 16.2465 9.31403 14.5186 7.76261C13.5819 6.94949 13.0632 5.75665 13.1071 4.51665ZM14.3772 4.51665C14.3528 5.3753 14.6943 6.20305 15.3179 6.79337C16.5222 7.99353 18.4704 7.99353 19.6746 6.79337C20.2714 6.20468 20.6007 5.39726 20.5869 4.55894C20.5975 3.732 20.2714 2.93515 19.6844 2.35296C19.1176 1.74312 18.3191 1.40161 17.4873 1.41137C16.6579 1.39267 15.8578 1.71954 15.2805 2.31474C14.6861 2.89693 14.3593 3.69947 14.3772 4.53048V4.51665Z" fill="#FEFEFE"/>
<path fill-rule="evenodd" clip-rule="evenodd" d="M31.8641 4.56836C31.856 3.42187 32.3284 2.32498 33.1675 1.54357C33.9847 0.716637 35.1052 0.262919 36.2679 0.287312C37.4201 0.275115 38.5267 0.740217 39.3252 1.57122C40.157 2.37458 40.6189 3.48692 40.6002 4.64398C40.6165 5.7986 40.1448 6.90688 39.3016 7.69722C37.638 9.31695 35.0035 9.37061 33.2757 7.81919C32.3373 7.00445 31.8186 5.80998 31.8641 4.56836ZM33.1342 4.56836C33.1098 5.42701 33.4513 6.25476 34.075 6.84508C35.2792 8.04524 37.2274 8.04524 38.4316 6.84508C39.026 6.25557 39.3545 5.44815 39.3399 4.61064C39.3634 3.77476 39.0439 2.96571 38.4552 2.37132C37.8738 1.76799 37.0623 1.44112 36.2248 1.47283C35.4076 1.45413 34.6181 1.77206 34.0424 2.35262C33.4415 2.93806 33.1122 3.74793 33.1342 4.58706V4.56836Z" fill="#FEFEFE"/>
<path fill-rule="evenodd" clip-rule="evenodd" d="M51.0628 0.470581L51.0303 8.83509H52.2906V5.37773L52.55 5.11915L55.5463 8.84484H57.236L53.4721 4.26295L57.2587 0.49904H55.5748L52.3142 3.8198L52.3239 0.470581H51.0628Z" fill="#FEFEFE"/>
<path fill-rule="evenodd" clip-rule="evenodd" d="M79.5587 0L79.5303 8.93856L80.8101 8.92474V3.07764L86.8597 9.45164L86.8833 0.588695H85.6229V6.39352L79.5587 0Z" fill="#FEFEFE"/>
<path fill-rule="evenodd" clip-rule="evenodd" d="M96.8477 8.99092H98.2072L99.1488 6.96301H102.724L103.594 8.99498H104.973L101.012 0.103577L96.8477 8.99092ZM100.979 2.95517L102.211 5.77749H99.6708L100.979 2.95517Z" fill="#FEFEFE"/>
<path fill-rule="evenodd" clip-rule="evenodd" d="M113.53 0.668091V1.88207H115.45V9.0513H116.734V1.88207H118.625V0.668091H113.53Z" fill="#FEFEFE"/>
<path fill-rule="evenodd" clip-rule="evenodd" d="M129.892 0.715393V5.7445C129.849 6.29254 129.97 6.84139 130.24 7.32032C130.883 8.1375 132.066 8.27979 132.883 7.63743C133.001 7.54474 133.107 7.43822 133.199 7.32032C133.475 6.84465 133.599 6.29742 133.557 5.74938V0.720272H134.818V6.0974C134.844 6.90319 134.546 7.68622 133.989 8.27085C132.76 9.52467 130.746 9.54337 129.492 8.31313C129.478 8.29931 129.464 8.28549 129.45 8.27085C128.896 7.68378 128.601 6.89913 128.631 6.09252V0.715393H129.892Z" fill="#FEFEFE"/>
<path fill-rule="evenodd" clip-rule="evenodd" d="M148.499 5.56579L151.077 9.13211H149.534L147.158 5.70727H146.932V9.12723H145.672L145.695 0.771667H147.172C148.276 0.771667 149.073 0.982264 149.563 1.40264C150.097 1.85636 150.394 2.53125 150.367 3.23215C150.381 3.78507 150.198 4.32416 149.854 4.75674C149.514 5.17956 149.033 5.4674 148.499 5.56579ZM146.932 4.62502H147.332C148.528 4.62502 149.126 4.17048 149.129 3.26061C149.129 2.4044 148.549 1.97426 147.389 1.97182H146.918L146.932 4.62502Z" fill="#FEFEFE"/>
<path fill-rule="evenodd" clip-rule="evenodd" d="M160.223 9.17388H161.581L162.523 7.14679H166.098L166.974 9.18364H168.351L164.391 0.292236L160.223 9.17388ZM164.367 3.13814L165.6 5.96127H163.059L164.367 3.13814Z" fill="#FEFEFE"/>
<path fill-rule="evenodd" clip-rule="evenodd" d="M178.283 9.22146H182V8.03106H179.544V0.861019L178.302 0.85614L178.283 9.22146Z" fill="#FEFEFE"/>
<path fill-rule="evenodd" clip-rule="evenodd" d="M54.1025 59.0894C53.2236 57.5299 52.4519 55.9126 51.7925 54.2482C51.2469 54.1921 50.6728 54.1498 50.0752 54.1124C51.3363 55.7394 52.6723 57.4055 54.1025 59.0846" fill="#FEFEFE"/>
<path fill-rule="evenodd" clip-rule="evenodd" d="M48.4191 39.2644C48.111 35.1289 48.1752 30.9731 48.6118 26.849C45.1545 22.1964 41.9077 17.5575 40.4026 14.6173L31.1396 14.584C31.5202 17.4917 32.7903 23.9933 36.9168 32.866C40.44 35.5087 44.3105 37.6537 48.4191 39.2409" fill="#FEFEFE"/>
<path fill-rule="evenodd" clip-rule="evenodd" d="M44.834 14.6456C45.8553 16.1555 47.4734 18.5363 49.3736 21.2977C49.7363 19.1714 50.1835 16.9646 50.7478 14.6643" fill="#FEFEFE"/>
<path fill-rule="evenodd" clip-rule="evenodd" d="M52.5875 40.6288C54.7203 41.2134 56.8937 41.6411 59.0891 41.9087V40.3418C57.5881 38.4602 55.048 35.2891 52.2818 31.6951C52.2045 34.6776 52.307 37.6626 52.5875 40.6337" fill="#FEFEFE"/>
<path fill-rule="evenodd" clip-rule="evenodd" d="M59.0749 45.0934C57.0259 44.869 54.9972 44.4884 53.0059 43.955C53.3384 46.1366 53.832 48.2914 54.4833 50.3998C55.9794 50.5884 57.504 50.8185 59.0562 51.1389" fill="#FEFEFE"/>
<path fill-rule="evenodd" clip-rule="evenodd" d="M59.0377 59.4517V55.7585C58.1351 55.4373 57.2131 55.1763 56.2764 54.9779C57.0366 56.5594 57.9571 58.058 59.0239 59.4517" fill="#FEFEFE"/>
<path fill-rule="evenodd" clip-rule="evenodd" d="M20.7568 56.6807C27.7674 53.0021 35.4481 50.7766 43.3386 50.1367C39.8186 45.0385 36.6344 39.715 33.8072 34.2021C32.1843 32.7483 21.0576 22.5819 17.0075 14.5841L0.141058 14.5182L0.0751953 37.444C10.8725 43.183 17.2002 50.7815 20.7755 56.6758" fill="#FEFEFE"/>
<path fill-rule="evenodd" clip-rule="evenodd" d="M22.709 60.2467C23.3074 61.4632 23.8408 62.7097 24.3084 63.9822L53.7212 64.0668C52.0608 62.0348 49.2523 58.501 46.0624 54.0646C39.8567 54.2297 31.798 55.6738 22.7041 60.2565" fill="#FEFEFE"/>
<path fill-rule="evenodd" clip-rule="evenodd" d="M50.3389 50.0472C49.6413 47.6201 49.1225 45.145 48.7867 42.6422C45.5985 41.4852 42.5306 40.0199 39.627 38.2668C41.8443 42.3178 44.3064 46.2297 46.9986 49.9814C48.0963 49.9814 49.2111 50.0017 50.3438 50.0424" fill="#FEFEFE"/>
<path fill-rule="evenodd" clip-rule="evenodd" d="M59.1081 35.0162L59.1691 14.6924H54.2245C53.4513 18.4189 52.9097 22.1902 52.6016 25.9833C54.7799 29.0935 57.0664 32.3021 59.1081 35.0496" fill="#FEFEFE"/>
<path fill-rule="evenodd" clip-rule="evenodd" d="M30.8239 27.6113C29.0269 23.0993 27.8081 18.6727 27.5308 14.5982L21.043 14.5844C23.6457 19.385 26.9413 23.7758 30.8239 27.6161" fill="#FEFEFE"/>
<path fill-rule="evenodd" clip-rule="evenodd" d="M21.0716 63.9821C20.7374 63.1966 20.3894 62.4388 20.0316 61.6956C18.7851 62.3965 17.524 63.1397 16.2686 63.9634" fill="#FEFEFE"/>
<mask id="mask0_206_387" style="mask-type:alpha" maskUnits="userSpaceOnUse" x="0" y="41" width="19" height="23">
<path d="M0 41.1414H18.1315V63.9256H0V41.1414Z" fill="white"/>
</mask>
<g mask="url(#mask0_206_387)">
<path fill-rule="evenodd" clip-rule="evenodd" d="M9.97854 63.9256C12.4919 61.7205 15.2231 59.7787 18.1316 58.1298C13.8693 50.8467 7.59693 44.9484 0.0658623 41.1414L0 63.8972" fill="#FEFEFE"/>
</g>
<path fill-rule="evenodd" clip-rule="evenodd" d="M69.9987 60.8348L72.6616 64.4995H71.0761L68.6204 60.9803H68.3846V64.4995H67.0869V55.9H68.6058C69.7417 55.9 70.5613 56.113 71.0663 56.5399C71.62 57.005 71.929 57.6986 71.9038 58.4214C71.9184 58.9898 71.7339 59.546 71.3818 59.9924C71.0346 60.4282 70.5451 60.7266 69.9987 60.8348ZM68.3846 59.8468H68.7993C70.0288 59.8468 70.6435 59.376 70.6435 58.4353C70.6435 57.5538 70.0458 57.1131 68.8506 57.1131H68.3806L68.3846 59.8468Z" fill="#FEFEFE"/>
<path fill-rule="evenodd" clip-rule="evenodd" d="M77.5167 55.909L77.4932 64.5093H82.2401V63.2905H78.7917V60.4161H82.1409V59.198H78.7917V57.1327H82.2401L82.2629 55.909H77.5167Z" fill="#FEFEFE"/>
<path fill-rule="evenodd" clip-rule="evenodd" d="M92.3503 57.0194L91.2965 57.6455C91.1656 57.3796 90.9721 57.1503 90.7322 56.9771C90.5143 56.8495 90.2639 56.7877 90.0118 56.7982C89.6849 56.786 89.3654 56.895 89.1133 57.104C88.8824 57.2869 88.7499 57.5666 88.7564 57.8618C88.7564 58.2822 89.0694 58.6204 89.6971 58.8774L90.5533 59.2303C91.1445 59.4384 91.6722 59.7954 92.0869 60.2654C92.4105 60.6955 92.5764 61.224 92.5577 61.7615C92.5804 62.4973 92.2934 63.2088 91.7673 63.7235C91.2421 64.2415 90.5281 64.5236 89.7906 64.5041C89.1117 64.5277 88.4498 64.2886 87.9424 63.8366C87.4318 63.3332 87.1139 62.6673 87.0439 61.9542L88.3563 61.6631C88.3709 62.0331 88.4775 62.3933 88.6669 62.712C89.1776 63.3519 90.1094 63.456 90.7493 62.9454C90.7826 62.9194 90.8144 62.8917 90.8453 62.8624C91.1128 62.5876 91.2567 62.216 91.2445 61.8322C91.2469 61.6729 91.2233 61.5135 91.1746 61.3614C91.1274 61.2208 91.0534 61.0899 90.9575 60.976C90.8477 60.8484 90.7192 60.7378 90.5769 60.6467C90.4005 60.5337 90.2143 60.4361 90.0216 60.3548L89.1938 60.0117C88.0172 59.5124 87.4294 58.7855 87.4294 57.8284C87.4204 57.2048 87.6936 56.6104 88.1725 56.2104C88.6824 55.7656 89.341 55.5306 90.0167 55.5517C91.0128 55.5493 91.921 56.1201 92.3503 57.0194Z" fill="#FEFEFE"/>
<path fill-rule="evenodd" clip-rule="evenodd" d="M97.168 55.8995V57.1183H99.1438V64.4998H100.442V57.1183H102.413V55.8995H97.168Z" fill="#FEFEFE"/>
<path fill-rule="evenodd" clip-rule="evenodd" d="M107.226 60.035C107.217 58.8674 107.698 57.7493 108.553 56.9533C109.386 56.1142 110.526 55.6523 111.709 55.6743C114.149 55.6946 116.117 57.6753 116.122 60.1147C116.138 61.2913 115.658 62.4199 114.8 63.2248C113.105 64.8779 110.418 64.9332 108.656 63.3517C107.702 62.5199 107.176 61.3002 107.226 60.035ZM108.52 60.035C108.475 61.7775 109.851 63.2273 111.594 63.272C112.457 63.294 113.29 62.963 113.902 62.354C115.133 61.0864 115.143 59.0715 113.925 57.7908C113.345 57.1769 112.535 56.8354 111.691 56.85C110.843 56.8354 110.027 57.1769 109.442 57.7908C108.836 58.386 108.504 59.2048 108.524 60.0537L108.52 60.035Z" fill="#FEFEFE"/>
<path fill-rule="evenodd" clip-rule="evenodd" d="M123.852 60.8348L126.515 64.4995H124.93L122.474 60.9803H122.238V64.4995H120.94V55.9H122.459C123.595 55.9 124.415 56.113 124.92 56.5399C125.474 57.005 125.783 57.6986 125.757 58.4214C125.772 58.9898 125.587 59.546 125.235 59.9924C124.889 60.4282 124.399 60.7266 123.852 60.8348ZM122.238 59.8468H122.653C123.882 59.8468 124.497 59.376 124.497 58.4353C124.497 57.5538 123.899 57.1131 122.704 57.1131H122.234L122.238 59.8468Z" fill="#FEFEFE"/>
<path fill-rule="evenodd" clip-rule="evenodd" d="M131.337 64.4997H132.748L133.69 62.4108H137.373L138.267 64.4997H139.678L135.571 55.3586L131.337 64.4997ZM135.567 58.2663L136.842 61.1927H134.231L135.567 58.2663Z" fill="#FEFEFE"/>
<path fill-rule="evenodd" clip-rule="evenodd" d="M144.51 55.8995V57.1183H146.486V64.4998H147.784V57.1183H149.755V55.8995H144.51Z" fill="#FEFEFE"/>
<path fill-rule="evenodd" clip-rule="evenodd" d="M160.707 60.035C160.698 58.8674 161.18 57.7493 162.034 56.9533C162.868 56.1142 164.008 55.6523 165.191 55.6743C167.63 55.6946 169.599 57.6753 169.604 60.1147C169.619 61.2913 169.139 62.4199 168.281 63.2249C166.586 64.8779 163.9 64.9332 162.138 63.3517C161.183 62.5199 160.658 61.3002 160.707 60.035ZM162.001 60.035C161.956 61.7775 163.333 63.2273 165.075 63.272C165.938 63.294 166.772 62.963 167.383 62.354C168.614 61.0864 168.625 59.0715 167.407 57.7908C166.827 57.1769 166.016 56.8354 165.172 56.85C164.324 56.8354 163.508 57.1769 162.923 57.7908C162.317 58.386 161.986 59.2048 162.006 60.0537L162.001 60.035Z" fill="#FEFEFE"/>
<path fill-rule="evenodd" clip-rule="evenodd" d="M174.421 64.504H175.72V58.4829L181.991 65.0269V55.8997H180.692V61.8793L174.421 55.3167V64.504Z" fill="#FEFEFE"/>
<path fill-rule="evenodd" clip-rule="evenodd" d="M154.596 55.8995L154.572 64.4998H155.871L155.894 55.8995H154.596Z" fill="#FEFEFE"/>
</svg>
