<svg width="14" height="20" viewBox="0 0 14 20" fill="none" xmlns="http://www.w3.org/2000/svg">
<path d="M6.67634 1.14282C3.2104 1.14282 0.390625 3.96259 0.390625 7.42854C0.390625 8.59956 0.715003 9.74238 1.32891 10.7338L6.31854 18.7746C6.41412 18.9286 6.58251 19.0222 6.76361 19.0222C6.765 19.0222 6.76636 19.0222 6.76776 19.0222C6.95043 19.0208 7.11917 18.9243 7.213 18.7675L12.0755 10.6489C12.6555 9.6784 12.9621 8.56482 12.9621 7.42854C12.9621 3.96259 10.1423 1.14282 6.67634 1.14282ZM11.1764 10.1111L6.75568 17.4922L2.21931 10.1819C1.70832 9.35664 1.43126 8.40457 1.43126 7.42854C1.43126 4.54025 3.78805 2.18346 6.67634 2.18346C9.56462 2.18346 11.9179 4.54025 11.9179 7.42854C11.9179 8.37562 11.6591 9.30336 11.1764 10.1111Z" fill="black" stroke="#121212" stroke-width="0.5"/>
</svg>
